<?xml version="1.0" encoding="UTF-8" standalone="no"?> <svg width="43" height="42" viewBox="0 0 43 42" fill="none" xmlns="http://www.w3.org/2000/svg">
<rect x="0.777832" width="42" height="42" rx="21" fill="black"/>
<path d="M18.5821 31.5C16.2995 31.5 14.4734 29.6739 14.4734 27.3913C14.4734 26.113 15.1125 24.9261 16.0256 24.1957C15.1125 23.4652 14.4734 22.2783 14.4734 21C14.4734 19.7217 15.1125 18.5348 16.0256 17.8043C15.1125 17.0739 14.4734 15.887 14.4734 14.6087C14.4734 12.3261 16.2995 10.5 18.5821 10.5H24.9734C27.256 10.5 29.0821 12.3261 29.0821 14.6087C29.0821 15.887 28.443 17.0739 27.5299 17.8043C28.443 18.5348 29.0821 19.7217 29.0821 21C29.0821 23.2826 27.256 25.1087 24.9734 25.1087C24.1516 25.1087 23.3299 24.8348 22.6908 24.3783V27.3913C22.6908 29.6739 20.8647 31.5 18.5821 31.5ZM18.5821 25.1087C17.3038 25.1087 16.2995 26.113 16.2995 27.3913C16.2995 28.6696 17.3038 29.6739 18.5821 29.6739C19.8603 29.6739 20.8647 28.6696 20.8647 27.3913V25.1087H18.5821ZM22.6908 21C22.6908 22.2783 23.6951 23.2826 24.9734 23.2826C26.2516 23.2826 27.256 22.2783 27.256 21C27.256 19.7217 26.2516 18.7174 24.9734 18.7174C23.6951 18.7174 22.6908 19.7217 22.6908 21ZM18.5821 23.2826H20.8647V18.7174H18.5821C17.3038 18.7174 16.2995 19.7217 16.2995 21C16.2995 22.2783 17.3038 23.2826 18.5821 23.2826ZM24.9734 16.8913C26.2516 16.8913 27.256 15.887 27.256 14.6087C27.256 13.3304 26.2516 12.3261 24.9734 12.3261H22.6908V16.8913H24.9734ZM18.5821 16.8913H20.8647V12.3261H18.5821C17.3038 12.3261 16.2995 13.3304 16.2995 14.6087C16.2995 15.887 17.3038 16.8913 18.5821 16.8913Z" fill="white"/>
</svg>
